<?xml version="1.0" standalone="no"?>
<!DOCTYPE svg PUBLIC "-//W3C//DTD SVG 20010904//EN"
 "http://www.w3.org/TR/2001/REC-SVG-20010904/DTD/svg10.dtd">
<svg version="1.0" xmlns="http://www.w3.org/2000/svg"
 width="280.000000pt" height="280.000000pt" viewBox="0 0 280.000000 280.000000"
 preserveAspectRatio="xMidYMid meet">
<metadata>
Created by potrace 1.11, written by Peter Selinger 2001-2013
</metadata>
<g transform="translate(0.000000,280.000000) scale(0.100000,-0.100000)"
fill="#000000" stroke="none">
<path d="M1280 2789 c-486 -41 -911 -332 -1135 -778 -154 -307 -181 -708 -70
-1047 159 -487 583 -852 1090 -939 131 -22 339 -22 470 0 581 99 1041 559
1140 1140 22 131 22 339 0 470 -122 713 -772 1215 -1495 1154z m958 -591 c7
-7 12 -21 12 -33 0 -43 -55 -61 -90 -30 -15 14 -25 13 -94 -10 -83 -27 -188
-77 -250 -120 -21 -14 -40 -24 -43 -22 -16 17 211 135 315 163 34 10 62 22 62
29 0 19 23 35 50 35 14 0 31 -5 38 -12z m-980 -130 c19 -19 14 -63 -8 -83 -23
-21 -22 -33 12 -170 35 -144 70 -243 85 -238 17 7 18 205 1 232 -16 26 -3 53
24 49 28 -4 36 -39 13 -58 -11 -10 -15 -33 -15 -104 0 -84 10 -129 25 -114 12
12 74 209 93 297 19 88 19 90 1 107 -21 19 -25 64 -7 82 18 18 63 14 83 -8 23
-25 13 -67 -20 -82 -19 -9 -27 -24 -40 -87 -13 -64 -73 -266 -91 -308 -3 -7 1
-13 9 -13 21 0 112 168 109 200 -4 31 22 47 44 29 20 -16 17 -36 -7 -53 -19
-13 -119 -170 -119 -185 0 -3 11 -16 25 -29 l24 -23 58 30 c74 38 118 68 119
81 1 5 2 15 3 20 2 16 51 12 57 -5 8 -20 -14 -46 -35 -43 -9 1 -45 -14 -81
-34 -36 -20 -77 -42 -92 -49 -17 -9 -24 -19 -20 -26 9 -14 178 20 310 62 65
21 82 30 82 45 0 11 11 27 25 36 23 15 27 15 51 0 58 -39 3 -120 -59 -87 -20
11 -36 9 -108 -13 -71 -22 -258 -65 -281 -66 -5 0 -8 -7 -8 -15 0 -23 165 -22
174 1 9 24 50 14 54 -14 4 -25 -19 -38 -45 -26 -26 12 -184 12 -180 0 2 -5 43
-17 93 -27 49 -9 131 -29 183 -44 80 -23 97 -25 117 -14 38 20 78 2 82 -38 3
-25 -2 -35 -22 -49 -24 -15 -28 -15 -51 0 -14 9 -25 25 -25 36 0 15 -16 24
-82 45 -110 33 -284 69 -304 61 -23 -9 -10 -22 74 -71 57 -34 84 -44 103 -40
29 7 55 -16 45 -40 -8 -22 -53 -19 -61 4 -3 10 -19 25 -36 32 -17 6 -57 29
-90 50 -116 76 -78 1 91 -174 100 -104 107 -109 129 -97 29 15 66 1 76 -30 9
-28 -19 -70 -47 -70 -28 0 -58 28 -58 53 0 11 -43 64 -103 126 -56 58 -118
128 -136 154 -26 36 -37 44 -47 36 -11 -9 -8 -21 13 -62 40 -79 73 -125 94
-130 26 -7 35 -35 17 -53 -21 -21 -48 -7 -48 25 0 14 -9 40 -21 56 -11 17 -33
56 -50 88 -16 31 -34 57 -40 57 -7 0 -8 -7 -4 -17 23 -59 66 -202 85 -284 18
-81 26 -98 46 -107 32 -15 42 -57 19 -82 -20 -22 -65 -26 -83 -8 -17 17 -15
58 5 80 16 18 16 24 -1 106 -21 106 -84 302 -96 302 -10 0 -7 -208 4 -232 12
-27 -1 -50 -26 -46 -28 4 -36 39 -13 58 12 10 15 34 15 111 0 90 -2 99 -21
110 -12 6 -24 7 -29 2 -12 -14 -58 -192 -75 -292 -16 -92 -16 -94 4 -115 39
-42 22 -96 -29 -96 -60 0 -79 77 -25 102 17 7 25 19 25 36 0 35 36 206 63 300
15 51 20 83 13 85 -15 5 -296 -285 -296 -307 0 -52 -68 -74 -96 -31 -30 46 13
99 63 76 24 -11 31 -6 125 86 145 142 180 186 165 206 -11 14 -21 10 -92 -33
-44 -27 -86 -50 -92 -50 -7 0 -13 -9 -13 -21 0 -16 -5 -20 -27 -17 -22 2 -28
8 -28 28 0 22 5 25 35 26 54 1 210 88 191 107 -12 12 -125 -11 -274 -54 -88
-26 -110 -36 -117 -55 -23 -58 -100 -46 -100 16 0 46 55 67 91 34 16 -14 25
-13 114 15 53 17 136 39 186 49 116 22 121 42 9 42 -44 0 -89 -5 -99 -12 -26
-16 -53 -3 -49 24 4 28 45 38 54 14 5 -13 23 -16 91 -16 114 0 105 17 -23 46
-54 12 -137 34 -183 49 -72 23 -87 25 -108 14 -62 -33 -117 48 -59 87 24 15
28 15 51 0 14 -9 25 -25 25 -35 0 -15 19 -26 93 -50 96 -32 250 -71 280 -71 9
0 17 7 17 15 0 8 -3 15 -8 15 -4 0 -43 21 -87 47 -44 26 -91 47 -105 47 -20 1
-25 6 -25 26 0 20 6 26 28 28 22 3 27 -1 27 -18 0 -14 16 -30 47 -50 77 -49
133 -74 144 -63 11 11 -85 126 -194 231 -59 57 -81 72 -96 67 -48 -15 -85 38
-57 80 31 47 104 16 94 -39 -4 -21 13 -43 107 -138 61 -62 123 -129 138 -148
34 -46 47 -31 15 18 -14 21 -37 61 -51 89 -16 30 -35 53 -47 56 -32 8 -24 52
10 52 21 0 25 -5 26 -32 1 -39 85 -188 105 -188 18 0 17 7 -25 145 -19 63 -40
147 -47 187 -10 58 -17 73 -36 82 -31 14 -40 56 -18 81 20 22 65 26 83 8z
m-444 -1383 c-21 -19 -64 -47 -96 -62 -31 -16 -58 -36 -61 -46 -9 -30 -52 -18
-52 13 0 22 4 25 40 26 48 1 83 19 149 74 59 49 76 45 20 -5z"/>
</g>
</svg>
