<?xml version="1.0" encoding="UTF-8"?>
<svg width="97px" height="49px" viewBox="0 0 97 49" version="1.1" xmlns="http://www.w3.org/2000/svg" xmlns:xlink="http://www.w3.org/1999/xlink">
    <!-- Generator: Sketch 52.5 (67469) - http://www.bohemiancoding.com/sketch -->
    <title>Fill 285</title>
    <desc>Created with Sketch.</desc>
    <g id="Symbols" stroke="none" stroke-width="1" fill="none" fill-rule="evenodd">
        <g id="pluis-links-onder" transform="translate(26.000000, -142.000000)" fill="#FFFFFE">
            <path d="M16.4447942,218.508093 C18.8685561,217.427945 20.7246242,215.461487 21.6766809,212.96707 C23.3013727,208.716614 21.8119665,204.046597 18.3817807,201.414451 C24.8185946,191.116692 30.2970299,180.215734 34.6843298,168.877359 C40.4586234,153.958042 44.362941,138.328404 46.2898128,122.419482 L45.1038511,122.272827 C43.8895921,132.300481 41.8842294,142.217297 39.1151939,151.913255 C37.5189612,157.502568 35.668957,163.018489 33.5704361,168.439943 C29.2160093,179.6916 23.7805619,190.513492 17.3930578,200.736011 C16.9467417,200.473306 16.4966326,200.214428 16.0010068,200.019312 C13.5304638,199.053937 10.8386593,199.116425 8.41869042,200.196574 C7.33640548,200.678624 6.36664783,201.337935 5.53976191,202.143902 C4.51816584,203.138609 3.71403825,204.356486 3.188068,205.736322 C1.21947261,210.879463 3.76587666,216.688291 8.86247782,218.682805 C11.3317564,219.64818 14.0248253,219.586967 16.4447942,218.508093 Z" id="Fill-285" transform="translate(24.406086, 170.818711) rotate(-135.000000) translate(-24.406086, -170.818711) "></path>
        </g>
    </g>
</svg>