<?xml version="1.0" encoding="UTF-8"?>
<svg width="54px" height="54px" viewBox="0 0 54 54" version="1.1" xmlns="http://www.w3.org/2000/svg" xmlns:xlink="http://www.w3.org/1999/xlink">
    <!-- Generator: Sketch 52.6 (67491) - http://www.bohemiancoding.com/sketch -->
    <title>icoon artikel hover</title>
    <desc>Created with Sketch.</desc>
    <g id="icoon-artikel-hover" stroke="none" stroke-width="1" fill="none" fill-rule="evenodd">
        <g id="icoon-nieuws-copy-3" fill="#BBD1B2" stroke="#BBD1B2" stroke-width="1.35">
            <path d="M38.1318,50.7360343 C51.3088,44.5910343 57.0088,28.9290343 50.8638,15.7520343 C44.7198,2.5740343 29.0578,-3.1249657 15.8808,3.0190343 C2.7038,9.1640343 -2.9972,24.8240343 3.1478,38.0020343 C9.2918,51.1790343 24.9548,56.8810343 38.1318,50.7360343 Z" id="Stroke-1"></path>
        </g>
        <path d="M11.9707031,29.5351562 L9.40234375,29.5351562 L8.9140625,31 L7.35644531,31 L10.0029297,23.890625 L11.3603516,23.890625 L14.0214844,31 L12.4638672,31 L11.9707031,29.5351562 Z M9.79785156,28.3486328 L11.5751953,28.3486328 L10.6816406,25.6875 L9.79785156,28.3486328 Z M17.3173828,28.3974609 L16.1503906,28.3974609 L16.1503906,31 L14.6855469,31 L14.6855469,23.890625 L17.3271484,23.890625 C18.1669964,23.890625 18.8147764,24.0777976 19.2705078,24.4521484 C19.7262393,24.8264993 19.9541016,25.3554653 19.9541016,26.0390625 C19.9541016,26.524091 19.8491221,26.9285466 19.6391602,27.2524414 C19.4291982,27.5763363 19.1110047,27.8343089 18.6845703,28.0263672 L20.2226562,30.9316406 L20.2226562,31 L18.6503906,31 L17.3173828,28.3974609 Z M16.1503906,27.2109375 L17.3320312,27.2109375 C17.6998716,27.2109375 17.9846995,27.1173512 18.1865234,26.9301758 C18.3883474,26.7430004 18.4892578,26.4850277 18.4892578,26.15625 C18.4892578,25.8209619 18.3940439,25.5572926 18.2036133,25.3652344 C18.0131826,25.1731761 17.7210306,25.0771484 17.3271484,25.0771484 L16.1503906,25.0771484 L16.1503906,27.2109375 Z M26.1748047,25.0771484 L23.9970703,25.0771484 L23.9970703,31 L22.5322266,31 L22.5322266,25.0771484 L20.3837891,25.0771484 L20.3837891,23.890625 L26.1748047,23.890625 L26.1748047,25.0771484 Z M28.5673828,31 L27.1025391,31 L27.1025391,23.890625 L28.5673828,23.890625 L28.5673828,31 Z M32.1513672,28.1484375 L31.3896484,28.96875 L31.3896484,31 L29.9248047,31 L29.9248047,23.890625 L31.3896484,23.890625 L31.3896484,27.1132812 L32.0341797,26.2294922 L33.8457031,23.890625 L35.6474609,23.890625 L33.1230469,27.0498047 L35.7207031,31 L33.9775391,31 L32.1513672,28.1484375 Z M40.5498047,27.9189453 L37.7373047,27.9189453 L37.7373047,29.8232422 L41.0380859,29.8232422 L41.0380859,31 L36.2724609,31 L36.2724609,23.890625 L41.0283203,23.890625 L41.0283203,25.0771484 L37.7373047,25.0771484 L37.7373047,26.7714844 L40.5498047,26.7714844 L40.5498047,27.9189453 Z M43.3623047,29.8232422 L46.4726562,29.8232422 L46.4726562,31 L41.8974609,31 L41.8974609,23.890625 L43.3623047,23.890625 L43.3623047,29.8232422 Z" id="ARTIKEL" fill="#FFFFFF"></path>
    </g>
</svg>