<?xml version="1.0" encoding="UTF-8"?>
<svg width="10px" height="18px" viewBox="0 0 10 18" version="1.1" xmlns="http://www.w3.org/2000/svg" xmlns:xlink="http://www.w3.org/1999/xlink">
    <!-- Generator: Sketch 52.2 (67145) - http://www.bohemiancoding.com/sketch -->
    <title>Fill 1</title>
    <desc>Created with Sketch.</desc>
    <g id="versie-6" stroke="none" stroke-width="1" fill="none" fill-rule="evenodd">
        <g id="V6-Nieuwsbericht" transform="translate(-952.000000, -346.000000)" fill="#9FB197">
            <path d="M961.160064,354.057188 C960.253633,352.688075 957.885109,348.998371 957.287333,347.603098 C957.471325,347.445263 957.590377,347.21347 957.590377,346.951917 C957.590377,346.476605 957.205251,346.091479 956.729939,346.091479 C956.254627,346.091479 955.869502,346.476605 955.869502,346.951917 C955.869502,347.18731 955.964204,347.400168 956.117524,347.555303 C955.63771,348.490596 953.601277,352.40401 952.326759,354.021169 C952.30872,354.044618 952.292486,354.06897 952.278055,354.095126 C952.183353,354.267391 952.190569,354.479351 952.296093,354.646193 C952.352912,354.73458 953.626416,356.794562 953.709398,360.991072 L953.466778,360.991072 C953.169137,360.991072 952.92744,361.232791 952.92744,361.530409 L952.92744,363.148446 C952.92744,363.446087 953.16916,363.687784 953.466778,363.687784 L959.740543,363.687784 C960.038184,363.687784 960.27988,363.446064 960.27988,363.148446 L960.27988,361.530409 C960.27988,361.232768 960.038161,360.991072 959.740543,360.991072 L959.525886,360.991072 C959.750464,358.477364 960.270878,355.530043 961.085299,354.743398 C961.272898,354.563014 961.303562,354.274412 961.160158,354.057029 L961.160064,354.057188 Z M959.201094,362.609152 L954.006051,362.609152 L954.006051,362.069814 L959.20017,362.069814 L959.201094,362.609152 Z M958.442572,360.991115 L954.788956,360.991115 C954.721312,357.359896 953.80857,355.198989 953.393683,354.398953 C954.373168,353.063203 955.629537,350.791284 956.423201,349.300422 L956.423201,352.517654 C956.151719,352.636709 955.96232,352.906382 955.96232,353.221156 C955.96232,353.645948 956.306855,353.989583 956.730747,353.989583 C957.15554,353.989583 957.499175,353.645048 957.499175,353.221156 C957.499175,352.906382 957.309773,352.635801 957.038294,352.517654 L957.038294,349.464586 C958.013276,351.194465 959.485274,353.467308 960.041721,354.318603 C959.025271,355.781504 958.603156,359.129443 958.442618,360.990885 L958.442572,360.991115 Z" id="Fill-1"></path>
        </g>
    </g>
</svg>