<?xml version="1.0" encoding="UTF-8"?>
<svg fill="#264F9A" width="100pt" height="100pt" version="1.1" viewBox="0 0 100 100" xmlns="http://www.w3.org/2000/svg">
 <path d="m50 5c-24.855 0-45 20.148-45 45 0 24.855 20.145 45 45 45 24.852 0 45-20.145 45-45 0-24.852-20.148-45-45-45zm21 54.418c-1.9531 1.9531-5.1172 1.9531-7.0664 0l-13.223-13.219c-0.39063-0.39062-1.0234-0.39062-1.4141 0l-13.227 13.219c-1.957 1.9531-5.1211 1.9531-7.0703 0-1.9492-1.9492-1.9492-5.1172 0-7.0703l16.051-16.051c2.7305-2.7266 7.168-2.7266 9.8984 0l16.051 16.051c1.9492 1.9531 1.9492 5.1211 0 7.0703z"/>
</svg>
