<?xml version="1.0" encoding="UTF-8"?>
<svg width="55px" height="55px" viewBox="0 0 55 55" version="1.1" xmlns="http://www.w3.org/2000/svg" xmlns:xlink="http://www.w3.org/1999/xlink">
    <!-- Generator: Sketch 52.5 (67469) - http://www.bohemiancoding.com/sketch -->
    <title>icoon boek</title>
    <desc>Created with Sketch.</desc>
    <g id="icoon-boek" stroke="none" stroke-width="1" fill="none" fill-rule="evenodd">
        <path d="M38.6972543,51.5112849 C51.9587529,45.3269223 57.6953046,29.5645973 51.5108993,16.3031902 C45.3275004,3.04077681 29.5650665,-2.6947289 16.3035679,3.48862731 C3.04206928,9.67298993 -2.69548885,25.4333022 3.48891647,38.6957156 C9.67231538,51.9571226 25.4357557,57.6956475 38.6972543,51.5112849" id="Fill-17" fill="#FEFEFE"></path>
        <path d="M38.6972543,51.5112849 C51.9587529,45.3269223 57.6953046,29.5645973 51.5108993,16.3031902 C45.3275004,3.04077681 29.5650665,-2.6947289 16.3035679,3.48862731 C3.04206928,9.67298993 -2.69548885,25.4333022 3.48891647,38.6957156 C9.67231538,51.9571226 25.4357557,57.6956475 38.6972543,51.5112849 Z" id="Stroke-18" stroke="#BBD1B2" stroke-width="1.35" fill="#FFFFFF"></path>
        <polyline id="Stroke-19" stroke="#BBD1B2" stroke-width="1.35" points="14.408911 18 13 18 13 40 44 40 44 18 14.408911 18"></polyline>
        <path d="M15,16.4776638 L15,36.3496143 C15,36.3496143 24.4803428,35.0273927 28.6441028,39 C28.6441028,39 33.7810644,35.0273927 42,36.3496143 L42,16.4776638 C42,16.4776638 36.9198677,12.504066 28.6999173,17.8028566 C28.6999173,17.8028566 20.4789521,12.504066 15,16.4776638" id="Fill-20" fill="#FEFEFE"></path>
        <path d="M15,16.4776638 L15,36.3496143 C15,36.3496143 24.4803428,35.0273927 28.6441028,39 C28.6441028,39 33.7810644,35.0273927 42,36.3496143 L42,16.4776638 C42,16.4776638 36.9198677,12.504066 28.6999173,17.8028566 C28.6999173,17.8028566 20.4789521,12.504066 15,16.4776638 Z" id="Stroke-21" stroke="#BBD1B2" stroke-width="1.35"></path>
        <path d="M28,18 L28,40" id="Stroke-22" stroke="#BBD1B2" stroke-width="1.35"></path>
    </g>
</svg>