<?xml version="1.0" encoding="UTF-8"?>
<svg width="54px" height="54px" viewBox="0 0 54 54" version="1.1" xmlns="http://www.w3.org/2000/svg" xmlns:xlink="http://www.w3.org/1999/xlink">
    <!-- Generator: Sketch 52.6 (67491) - http://www.bohemiancoding.com/sketch -->
    <title>icoon boek hover</title>
    <desc>Created with Sketch.</desc>
    <g id="icoon-boek-hover" stroke="none" stroke-width="1" fill="none" fill-rule="evenodd">
        <g id="icoon-nieuws-copy-4" fill="#BBD1B2" stroke="#BBD1B2" stroke-width="1.35">
            <path d="M38.1318,50.7360343 C51.3088,44.5910343 57.0088,28.9290343 50.8638,15.7520343 C44.7198,2.5740343 29.0578,-3.1249657 15.8808,3.0190343 C2.7038,9.1640343 -2.9972,24.8240343 3.1478,38.0020343 C9.2918,51.1790343 24.9548,56.8810343 38.1318,50.7360343 Z" id="Stroke-1"></path>
        </g>
        <path d="M15.0053711,31 L15.0053711,23.890625 L17.4956055,23.890625 C18.35824,23.890625 19.0125303,24.0558252 19.4584961,24.3862305 C19.9044619,24.7166358 20.1274414,25.2008432 20.1274414,25.8388672 C20.1274414,26.1871762 20.0379241,26.4939765 19.8588867,26.7592773 C19.6798494,27.0245781 19.4308284,27.2190749 19.1118164,27.3427734 C19.4764016,27.4339197 19.7636708,27.6178372 19.9736328,27.8945312 C20.1835948,28.1712253 20.2885742,28.5097636 20.2885742,28.9101562 C20.2885742,29.5937534 20.0704774,30.1113264 19.6342773,30.4628906 C19.1980772,30.8144549 18.5763387,30.9934896 17.769043,31 L15.0053711,31 Z M16.4702148,27.9042969 L16.4702148,29.8232422 L17.7250977,29.8232422 C18.0701515,29.8232422 18.3395173,29.741049 18.5332031,29.5766602 C18.726889,29.4122713 18.8237305,29.1852228 18.8237305,28.8955078 C18.8237305,28.2444629 18.4868198,27.9140625 17.8129883,27.9042969 L16.4702148,27.9042969 Z M16.4702148,26.8691406 L17.5541992,26.8691406 C18.2931352,26.8561197 18.6625977,26.5615263 18.6625977,25.9853516 C18.6625977,25.6630843 18.5690114,25.4311531 18.3818359,25.2895508 C18.1946605,25.1479485 17.8992533,25.0771484 17.4956055,25.0771484 L16.4702148,25.0771484 L16.4702148,26.8691406 Z M27.2270508,27.6064453 C27.2270508,28.3063186 27.1033541,28.9199192 26.855957,29.4472656 C26.60856,29.974612 26.2545596,30.381509 25.7939453,30.6679688 C25.333331,30.9544285 24.8051788,31.0976562 24.2094727,31.0976562 C23.620277,31.0976562 23.0945661,30.9560561 22.6323242,30.6728516 C22.1700823,30.389647 21.812013,29.9851914 21.5581055,29.4594727 C21.3041979,28.9337539 21.1756185,28.329105 21.1723633,27.6455078 L21.1723633,27.2939453 C21.1723633,26.594072 21.2985013,25.97803 21.5507812,25.4458008 C21.8030612,24.9135716 22.1595029,24.505047 22.6201172,24.2202148 C23.0807315,23.9353827 23.6072562,23.7929688 24.199707,23.7929688 C24.7921579,23.7929688 25.3186826,23.9353827 25.7792969,24.2202148 C26.2399112,24.505047 26.5963529,24.9135716 26.8486328,25.4458008 C27.1009127,25.97803 27.2270508,26.5924444 27.2270508,27.2890625 L27.2270508,27.6064453 Z M25.7426758,27.2841797 C25.7426758,26.5387333 25.6092136,25.9723327 25.3422852,25.5849609 C25.0753567,25.1975892 24.6945012,25.0039062 24.199707,25.0039062 C23.7081681,25.0039062 23.3289401,25.1951478 23.0620117,25.5776367 C22.7950833,25.9601256 22.6599935,26.5208296 22.6567383,27.2597656 L22.6567383,27.6064453 C22.6567383,28.3323604 22.7902005,28.8955058 23.0571289,29.2958984 C23.3240573,29.6962911 23.7081681,29.8964844 24.2094727,29.8964844 C24.7010116,29.8964844 25.078612,29.7036152 25.3422852,29.3178711 C25.6059583,28.932127 25.7394206,28.3697954 25.7426758,27.6308594 L25.7426758,27.2841797 Z M32.5688477,27.9189453 L29.7563477,27.9189453 L29.7563477,29.8232422 L33.0571289,29.8232422 L33.0571289,31 L28.2915039,31 L28.2915039,23.890625 L33.0473633,23.890625 L33.0473633,25.0771484 L29.7563477,25.0771484 L29.7563477,26.7714844 L32.5688477,26.7714844 L32.5688477,27.9189453 Z M36.1430664,28.1484375 L35.3813477,28.96875 L35.3813477,31 L33.9165039,31 L33.9165039,23.890625 L35.3813477,23.890625 L35.3813477,27.1132812 L36.0258789,26.2294922 L37.8374023,23.890625 L39.6391602,23.890625 L37.1147461,27.0498047 L39.7124023,31 L37.9692383,31 L36.1430664,28.1484375 Z" id="BOEK" fill="#FFFFFF"></path>
    </g>
</svg>