<?xml version="1.0" encoding="UTF-8"?>
<svg width="16px" height="17px" viewBox="0 0 16 17" version="1.1" xmlns="http://www.w3.org/2000/svg" xmlns:xlink="http://www.w3.org/1999/xlink">
    <!-- Generator: Sketch 52.6 (67491) - http://www.bohemiancoding.com/sketch -->
    <title>Page 1</title>
    <desc>Created with Sketch.</desc>
    <g id="Symbols" stroke="none" stroke-width="1" fill="none" fill-rule="evenodd">
        <g id="date-picker" fill="#1C1C1A">
            <g id="Page-1">
                <polygon id="Fill-1" points="3.22443147 10.1740177 12.4245437 10.1740177 12.4245437 9.17401771 3.22443147 9.17401771"></polygon>
                <polygon id="Fill-3" points="3.22443147 12.9577631 12.4245437 12.9577631 12.4245437 11.9577631 3.22443147 11.9577631"></polygon>
                <path d="M1.82675699,1.74620399 C0.777896536,2.03655042 0.00480117188,2.99721156 0.00480117188,4.13700977 L0.00480117188,13.5206335 C0.00480117188,14.8897143 1.11895756,16.0039062 2.48807396,16.0039062 L13.1601899,16.0039062 C14.5292708,16.0039062 15.6434627,14.8897499 15.6434627,13.5206335 L15.6427674,4.13700977 C15.6427674,2.99714043 14.8696543,2.03658598 13.8208116,1.74620399 L13.8208116,2.48387738 C13.8208116,3.16877344 13.2637334,3.72585163 12.5788374,3.72585163 L12.2683438,3.72585163 C11.5834477,3.72585163 11.0263695,3.16877344 11.0263695,2.48387738 L11.0263695,1.65450161 L4.62125063,1.65380633 L4.62125063,2.4831821 C4.62125063,3.16807816 4.06417243,3.72515635 3.37927637,3.72515635 L3.06878281,3.72515635 C2.38388675,3.72515635 1.82680856,3.16807816 1.82680856,2.4831821 L1.82675699,1.74620399 Z M14.5409714,5.88463633 L14.5409714,13.5204556 C14.5409714,14.2817437 13.9213713,14.9013438 13.1600832,14.9013438 L2.48796727,14.9013438 C1.72667923,14.9013438 1.10707911,14.2817437 1.10707911,13.5204556 L1.10707911,5.88463633 L14.5409714,5.88463633 Z" id="Fill-4"></path>
                <path d="M3.37931372,3.26052917 C3.80718704,3.26052917 4.15520087,2.91253312 4.15520087,2.48464201 L4.15589615,0.775887157 C4.15589615,0.348013832 3.8072066,0 3.37931549,0 L3.06882193,0 C2.64094861,0 2.29293477,0.34799605 2.29293477,0.775887157 L2.29293477,2.48394851 C2.29293477,2.91182183 2.64093082,3.25983566 3.06882193,3.25983566 L3.37931372,3.26052917 Z" id="Fill-5"></path>
                <path d="M12.579426,3.26052917 C13.0072993,3.26052917 13.3553131,2.91253312 13.3553131,2.48464201 L13.3553131,0.775887157 C13.3553131,0.348013832 13.0073171,0 12.579426,0 L12.2689324,0 C11.8410591,0 11.4930452,0.34799605 11.4930452,0.775887157 L11.4930452,2.48394851 C11.4930452,2.91182183 11.8410413,3.25983566 12.2689324,3.25983566 L12.579426,3.26052917 Z" id="Fill-6"></path>
            </g>
        </g>
    </g>
</svg>