<?xml version="1.0" encoding="UTF-8"?>
<svg width="19px" height="19px" viewBox="0 0 19 19" version="1.1" xmlns="http://www.w3.org/2000/svg" xmlns:xlink="http://www.w3.org/1999/xlink">
    <!-- Generator: Sketch 52.2 (67145) - http://www.bohemiancoding.com/sketch -->
    <title>Group 5</title>
    <desc>Created with Sketch.</desc>
    <g id="versie-6" stroke="none" stroke-width="1" fill="none" fill-rule="evenodd">
        <g id="V6-Nieuwsbericht" transform="translate(-947.000000, -278.000000)" fill="#9FB197">
            <g id="Group-5" transform="translate(947.230845, 278.208241)">
                <path d="M4.73338994,0.182431599 C4.1071689,0.182431599 3.59510415,0.694496343 3.59510415,1.32071739 L3.59510415,3.02759987 L5.87058499,3.02759987 L5.87058332,1.32071739 C5.87165115,0.694496343 5.35958367,0.182431599 4.73336263,0.182431599 L4.73338994,0.182431599 Z" id="Fill-1"></path>
                <path d="M14.9746848,3.02650746 L14.9746848,4.16479325 C14.9746848,4.79101429 14.4626201,5.30307904 13.836399,5.30307904 C13.210178,5.30307904 12.6981132,4.79101429 12.6981132,4.16479325 L12.6981132,3.02650746 L5.87167573,3.02650746 L5.87167573,4.16479325 C5.87167573,4.79101429 5.35961098,5.30307904 4.73338994,5.30307904 C4.1071689,5.30307904 3.59510415,4.79101429 3.59510415,4.16479325 L3.59510415,3.02650746 L0.182431599,3.02650746 L0.182431599,18.3884498 L18.3895422,18.3884498 L18.3884744,3.02650746 L14.9746848,3.02650746 Z M16.1129706,16.1129706 L2.45791077,16.1129706 L2.45791077,6.44027242 L16.1129706,6.44027242 L16.1129706,16.1129706 Z" id="Fill-2"></path>
                <path d="M13.8374914,0.182431599 C13.2112704,0.182431599 12.6992056,0.694496343 12.6992056,1.32071739 L12.6992056,3.02759987 L14.9746848,3.02759987 L14.9746848,1.32071739 C14.9746848,0.694496343 14.4626201,0.182431599 13.8374641,0.182431599 L13.8374914,0.182431599 Z" id="Fill-3"></path>
                <polygon id="Fill-4" points="8.1471549 14.8616209 5.07476644 11.7892325 6.66855771 10.1954412 8.1471549 11.6751035 11.9022964 7.91996201 13.4960876 9.51268819"></polygon>
            </g>
        </g>
    </g>
</svg>