<?xml version="1.0" encoding="UTF-8"?>
<svg width="50px" height="50px" viewBox="0 0 50 50" version="1.1" xmlns="http://www.w3.org/2000/svg" xmlns:xlink="http://www.w3.org/1999/xlink">
    <!-- Generator: Sketch 52.6 (67491) - http://www.bohemiancoding.com/sketch -->
    <title>facebook</title>
    <desc>Created with Sketch.</desc>
    <g id="facebook" stroke="none" stroke-width="1" fill="none" fill-rule="evenodd">
        <g id="mail" transform="translate(0.000000, -0.839844)" fill="#FFFFFF">
            <path d="M35.5634474,48.4919993 C48.0742952,42.657695 53.4861364,27.787577 47.6517918,15.2768157 C41.8183966,2.76510489 26.9481759,-2.64574955 14.4373282,3.18760537 C1.92648046,9.02190972 -3.48631024,23.8901288 2.34803441,36.4018396 C8.18142961,48.9126009 23.0525997,54.3263037 35.5634474,48.4919993 Z" id="Stroke-1"></path>
        </g>
        <path d="M23.7500256,37.8007812 L23.7500256,25.8840833 L20.500017,25.8840833 L20.500017,21.5507386 L23.7500256,21.5507386 L23.7500256,17.759062 C23.7500256,14.6896095 25.6759565,11.8007131 30.2500426,11.8007131 C32.0856956,11.8007131 33.5000511,12.0414544 33.5000511,12.0414544 L33.3194951,16.1340578 L30.5208767,16.1340578 C28.8657797,16.1340578 28.6250384,17.0368379 28.6250384,18.3007301 L28.6250384,21.5507386 L33.5000511,21.5507386 L33.1690318,25.8840833 L28.6250384,25.8840833 L28.6250384,37.8007812 L23.7500256,37.8007812 Z" fill="#264F9A"></path>
    </g>
</svg>