<?xml version="1.0" encoding="UTF-8"?>
<svg width="50px" height="50px" viewBox="0 0 50 50" version="1.1" xmlns="http://www.w3.org/2000/svg" xmlns:xlink="http://www.w3.org/1999/xlink">
    <!-- Generator: Sketch 53.2 (72643) - https://sketchapp.com -->
    <title>facebook</title>
    <desc>Created with Sketch.</desc>
    <g id="facebook" stroke="none" stroke-width="1" fill="none" fill-rule="evenodd">
        <g id="mail" transform="translate(0.000000, 0.160156)" fill="#264F9A">
            <path d="M35.5634474,47.6521556 C48.0742952,41.8178512 53.4861364,26.9477333 47.6517918,14.4369719 C41.8183966,1.92526114 26.9481759,-3.4855933 14.4373282,2.34776162 C1.92648046,8.18206597 -3.48631024,23.050285 2.34803441,35.5619958 C8.18142961,48.0727572 23.0525997,53.4864599 35.5634474,47.6521556 Z" id="Stroke-1"></path>
        </g>
        <path d="M21.7500256,38 L21.7500256,26.0833021 L18.500017,26.0833021 L18.500017,21.7499574 L21.7500256,21.7499574 L21.7500256,17.9582808 C21.7500256,14.8888283 23.6759565,11.9999318 28.2500426,11.9999318 C30.0856956,11.9999318 31.5000511,12.2406732 31.5000511,12.2406732 L31.3194951,16.3332765 L28.5208767,16.3332765 C26.8657797,16.3332765 26.6250384,17.2360567 26.6250384,18.4999489 L26.6250384,21.7499574 L31.5000511,21.7499574 L31.1690318,26.0833021 L26.6250384,26.0833021 L26.6250384,38 L21.7500256,38 Z" id="f" fill="#FFFFFF" fill-rule="nonzero"></path>
    </g>
</svg>