<?xml version="1.0" encoding="UTF-8"?>
<svg width="19px" height="16px" viewBox="0 0 19 16" version="1.1" xmlns="http://www.w3.org/2000/svg" xmlns:xlink="http://www.w3.org/1999/xlink">
    <!-- Generator: Sketch 52.2 (67145) - http://www.bohemiancoding.com/sketch -->
    <title>Fill 1</title>
    <desc>Created with Sketch.</desc>
    <g id="versie-6" stroke="none" stroke-width="1" fill="none" fill-rule="evenodd">
        <g id="V6-Paragraphs-voorstel-1-met-zijbalk" transform="translate(-228.000000, -449.000000)" fill="#9FB197">
            <path d="M234.274008,449.011621 L230.559831,449.753683 L230.559831,450.881089 L228.083714,450.881089 L228.083714,464.499736 L246.654595,464.499736 L246.654595,450.881089 L244.178478,450.881089 L244.178478,449.753683 L240.464302,449.011621 L237.369155,449.63065 L234.274008,449.011621 Z M234.274008,450.273668 L236.750125,450.767346 L236.750125,460.650225 L234.274008,460.154229 L231.79789,460.650225 L231.79789,450.769723 L234.274008,450.273668 Z M240.464302,450.273668 L242.940419,450.767346 L242.940419,460.650225 L240.464302,460.154229 L237.988184,460.650225 L237.988184,450.769723 L240.464302,450.273668 Z M229.321773,452.119148 L230.559831,452.119148 L230.559831,462.159111 L234.274008,461.416276 L236.750125,461.912272 L236.750125,463.261756 L229.321773,463.261756 L229.321773,452.119148 Z M244.178478,452.119148 L245.416537,452.119148 L245.416537,463.261677 L237.988184,463.261677 L237.988184,461.912193 L240.464302,461.416197 L244.178478,462.159032 L244.178478,452.119148 Z" id="Fill-1"></path>
        </g>
    </g>
</svg>