<?xml version="1.0" encoding="UTF-8"?>
<svg width="50px" height="51px" viewBox="0 0 50 51" version="1.1" xmlns="http://www.w3.org/2000/svg" xmlns:xlink="http://www.w3.org/1999/xlink">
    <!-- Generator: Sketch 52.6 (67491) - http://www.bohemiancoding.com/sketch -->
    <title>icoon mail</title>
    <desc>Created with Sketch.</desc>
    <g id="Symbols" stroke="none" stroke-width="1" fill="none" fill-rule="evenodd">
        <g id="footer" transform="translate(-210.000000, -259.000000)">
            <g id="icoon-mail" transform="translate(210.000000, 259.644531)">
                <g id="mail" transform="translate(-0.593750, -0.839844)">
                    <path d="M36.1571974,48.4919993 C48.6680452,42.657695 54.0798864,27.787577 48.2455418,15.2768157 C42.4121466,2.76510489 27.5419259,-2.64574955 15.0310782,3.18760537 C2.52023046,9.02190972 -2.89256024,23.8901288 2.94178441,36.4018396 C8.77517961,48.9126009 23.6463497,54.3263037 36.1571974,48.4919993 Z" id="Stroke-1" fill="#FFFFFF"></path>
                    <path d="M13.8080357,15.4827009 C12.0460357,15.4827009 10.59375,16.9349866 10.59375,18.6969866 L10.59375,32.9827009 C10.59375,34.7447009 12.0460357,36.1969866 13.8080357,36.1969866 L37.3794643,36.1969866 C39.1414643,36.1969866 40.59375,34.7447009 40.59375,32.9827009 L40.59375,18.6969866 C40.59375,16.9349866 39.1414643,15.4827009 37.3794643,15.4827009 L13.8080357,15.4827009 Z M14.0424107,17.625558 L37.1563393,17.625558 L26.2524107,27.3577009 C25.8366607,27.728808 25.3749107,27.728808 24.9577679,27.3577009 L14.0424107,17.625558 Z M12.736625,19.3331295 L20.0801964,25.884558 L12.736625,32.9381295 L12.736625,19.3331295 Z M38.4509107,19.3331295 L38.4509107,32.9267009 L31.1294821,25.8731295 L38.4509107,19.3331295 Z M29.5223393,27.3131295 L36.5201964,34.0542009 L14.6673393,34.0542009 L21.6873393,27.3242009 L23.5288393,28.9648437 C24.6993036,30.0083795 26.5101607,30.0097723 27.680625,28.9648437 L29.5223393,27.3131295 Z" id="Fill-1" fill="#264F9A"></path>
                </g>
            </g>
        </g>
    </g>
</svg>