<?xml version="1.0" encoding="UTF-8"?>
<svg width="14px" height="19px" viewBox="0 0 14 19" version="1.1" xmlns="http://www.w3.org/2000/svg" xmlns:xlink="http://www.w3.org/1999/xlink">
    <!-- Generator: Sketch 52.5 (67469) - http://www.bohemiancoding.com/sketch -->
    <title>marker</title>
    <desc>Created with Sketch.</desc>
    <g id="Symbols" stroke="none" stroke-width="1" fill="none" fill-rule="evenodd">
        <g id="activiteit" transform="translate(-151.000000, -1.000000)">
            <g id="marker-groen" transform="translate(151.000000, 1.000000)">
                <g id="marker-copy-11" transform="translate(0.718750, 0.898438)">
                    <path d="M10.929553,1.87974837 C12.1764331,3.13286848 12.7998731,4.64374862 12.7998731,6.41014877 C12.7998731,7.8367089 12.3701931,9.12654902 11.510033,10.2805491 L7.48043267,17.2601495 C7.44762067,17.3335875 7.39762066,17.4203056 7.33043266,17.5203096 L7.28980865,17.5898416 C7.03667663,17.8632816 6.7468366,18.0000016 6.39995657,18.0000016 C6.00619654,18.0000016 5.69683651,17.8367196 5.47027649,17.5101616 L1.27032011,10.2500051 C0.423440038,9.11640502 0,7.8368049 0,6.41020477 C0,4.64380462 0.623440056,3.13360448 1.87032017,1.88060437 C3.11642028,0.626704256 4.62652041,0.000144200013 6.39992057,0.000144200013 C8.17339273,6.82000061e-05 9.68355287,0.626628256 10.929553,1.87974837 Z M9.48975285,6.50006878 C9.48975285,5.6266287 9.18351282,4.88288864 8.56943277,4.27046858 C7.95615271,3.65014853 7.21319264,3.3407885 6.33983257,3.3407885 C5.47265249,3.3407885 4.72967242,3.65094853 4.11023237,4.27046858 C3.49695231,4.88374864 3.18991229,5.6267087 3.18991229,6.50006878 C3.18991229,7.37974886 3.49615231,8.12662893 4.11023237,8.73986898 C4.73055242,9.35314904 5.47351249,9.66018906 6.33983257,9.66018906 C7.21327264,9.66018906 7.95623271,9.35394904 8.56943277,8.73986898 C9.18349282,8.12032893 9.48975285,7.37346886 9.48975285,6.50006878 Z" id="Page-1" fill="#9FB197"></path>
                    <path d="M9.48975285,6.50006878 C9.48975285,5.6266287 9.18351282,4.88288864 8.56943277,4.27046858 C7.95615271,3.65014853 7.21319264,3.3407885 6.33983257,3.3407885 C5.47265249,3.3407885 4.72967242,3.65094853 4.11023237,4.27046858 C3.49695231,4.88374864 3.18991229,5.6267087 3.18991229,6.50006878 C3.18991229,7.37974886 3.49615231,8.12662893 4.11023237,8.73986898 C4.73055242,9.35314904 5.47351249,9.66018906 6.33983257,9.66018906 C7.21327264,9.66018906 7.95623271,9.35394904 8.56943277,8.73986898 C9.18349282,8.12032893 9.48975285,7.37346886 9.48975285,6.50006878 Z" id="Path" fill="#FFFFFF"></path>
                </g>
            </g>
        </g>
    </g>
</svg>