<?xml version="1.0" encoding="UTF-8"?>
<svg width="54px" height="54px" viewBox="0 0 54 54" version="1.1" xmlns="http://www.w3.org/2000/svg" xmlns:xlink="http://www.w3.org/1999/xlink">
    <!-- Generator: Sketch 52.6 (67491) - http://www.bohemiancoding.com/sketch -->
    <title>icoon nieuws hover</title>
    <desc>Created with Sketch.</desc>
    <g id="icoon-nieuws-hover" stroke="none" stroke-width="1" fill="none" fill-rule="evenodd">
        <g id="icoon-nieuws-copy" fill="#BBD1B2" stroke="#BBD1B2" stroke-width="1.35">
            <path d="M38.1318,50.7360343 C51.3088,44.5910343 57.0088,28.9290343 50.8638,15.7520343 C44.7198,2.5740343 29.0578,-3.1249657 15.8808,3.0190343 C2.7038,9.1640343 -2.9972,24.8240343 3.1478,38.0020343 C9.2918,51.1790343 24.9548,56.8810343 38.1318,50.7360343 Z" id="Stroke-1"></path>
        </g>
        <path d="M14.1662598,31 L12.5549316,31 L9.41821289,25.8544922 L9.41821289,31 L7.80688477,31 L7.80688477,23.1796875 L9.41821289,23.1796875 L12.5603027,28.3359375 L12.5603027,23.1796875 L14.1662598,23.1796875 L14.1662598,31 Z M17.2868652,31 L15.6755371,31 L15.6755371,23.1796875 L17.2868652,23.1796875 L17.2868652,31 Z M23.4851074,27.6108398 L20.3913574,27.6108398 L20.3913574,29.7055664 L24.0222168,29.7055664 L24.0222168,31 L18.7800293,31 L18.7800293,23.1796875 L24.0114746,23.1796875 L24.0114746,24.4848633 L20.3913574,24.4848633 L20.3913574,26.3486328 L23.4851074,26.3486328 L23.4851074,27.6108398 Z M30.8864746,23.1796875 L30.8864746,28.3305664 C30.8864746,29.186365 30.6188178,29.863116 30.0834961,30.3608398 C29.5481744,30.8585637 28.8168178,31.1074219 27.8894043,31.1074219 C26.9763138,31.1074219 26.2512234,30.8657251 25.7141113,30.3823242 C25.1769993,29.8989234 24.9030762,29.2347047 24.892334,28.3896484 L24.892334,23.1796875 L26.5036621,23.1796875 L26.5036621,28.3413086 C26.5036621,28.8533554 26.6263009,29.2266427 26.871582,29.4611816 C27.1168632,29.6957206 27.4561339,29.8129883 27.8894043,29.8129883 C28.7953333,29.8129883 29.2554524,29.3367561 29.2697754,28.3842773 L29.2697754,23.1796875 L30.8864746,23.1796875 Z M38.298584,28.7441406 L39.3513184,23.1796875 L40.9572754,23.1796875 L39.2224121,31 L37.6003418,31 L36.3273926,25.7685547 L35.0544434,31 L33.432373,31 L31.6975098,23.1796875 L33.3034668,23.1796875 L34.3615723,28.7333984 L35.6506348,23.1796875 L37.0148926,23.1796875 L38.298584,28.7441406 Z M45.8825684,28.9482422 C45.8825684,28.6438787 45.7751476,28.4102384 45.5603027,28.2473145 C45.3454579,28.0843905 44.958743,27.9125172 44.4001465,27.7316895 C43.8415499,27.5508617 43.3993343,27.3727222 43.0734863,27.1972656 C42.1854611,26.7174455 41.7414551,26.0711304 41.7414551,25.2583008 C41.7414551,24.8357726 41.8605131,24.4589047 42.0986328,24.1276855 C42.3367525,23.7964664 42.6787087,23.5377613 43.1245117,23.3515625 C43.5703147,23.1653637 44.0707166,23.0722656 44.6257324,23.0722656 C45.184329,23.0722656 45.6820453,23.1734202 46.1188965,23.3757324 C46.5557476,23.5780446 46.8950183,23.8636049 47.1367188,24.2324219 C47.3784192,24.6012388 47.4992676,25.0201799 47.4992676,25.4892578 L45.8879395,25.4892578 C45.8879395,25.1311831 45.7751476,24.8527842 45.5495605,24.6540527 C45.3239735,24.4553213 45.0070821,24.355957 44.598877,24.355957 C44.2049948,24.355957 43.8988455,24.4392082 43.6804199,24.6057129 C43.4619944,24.7722176 43.3527832,24.9915351 43.3527832,25.2636719 C43.3527832,25.5179049 43.480793,25.7309562 43.7368164,25.902832 C43.9928398,26.0747079 44.3697078,26.2358391 44.8674316,26.3862305 C45.7841029,26.661948 46.4519022,27.0039042 46.8708496,27.4121094 C47.289797,27.8203145 47.4992676,28.328773 47.4992676,28.9375 C47.4992676,29.6142612 47.243248,30.145099 46.7312012,30.5300293 C46.2191543,30.9149596 45.5298709,31.1074219 44.6633301,31.1074219 C44.0617646,31.1074219 43.5139185,30.9973156 43.0197754,30.7770996 C42.5256323,30.5568837 42.1487643,30.2552102 41.8891602,29.8720703 C41.629556,29.4889304 41.4997559,29.0449244 41.4997559,28.5400391 L43.1164551,28.5400391 C43.1164551,29.4029991 43.6320749,29.8344727 44.6633301,29.8344727 C45.04647,29.8344727 45.3454579,29.7565926 45.5603027,29.6008301 C45.7751476,29.4450676 45.8825684,29.2275405 45.8825684,28.9482422 Z" id="NIEUWS" fill="#FFFFFF"></path>
    </g>
</svg>