<?xml version="1.0" encoding="UTF-8"?>
<svg width="34px" height="34px" viewBox="0 0 34 34" version="1.1" xmlns="http://www.w3.org/2000/svg" xmlns:xlink="http://www.w3.org/1999/xlink">
    <!-- Generator: Sketch 52.2 (67145) - http://www.bohemiancoding.com/sketch -->
    <title>Fill 1</title>
    <desc>Created with Sketch.</desc>
    <g id="Symbols" stroke="none" stroke-width="1" fill="none" fill-rule="evenodd">
        <g id="phone" fill="#264F9A">
            <path d="M16.9960939,0 C7.60861318,0 -9.09494702e-13,7.60861283 -9.09494702e-13,16.9960936 C-9.09494702e-13,26.3835743 7.60861318,33.9921882 16.9960939,33.9921882 C26.3835747,33.9921882 33.9921875,26.3835743 33.9921875,16.9960936 C33.9921875,7.60861283 26.3835747,0 16.9960939,0 Z M19.5440945,25.2332607 C12.1794347,21.6029322 10.2599186,15.0765775 9.98071627,12.7033576 C9.70124171,10.3298585 13.8197485,8.23577109 13.8197485,8.23577109 L16.4018117,12.633906 C16.4018117,12.633906 13.6097883,14.1348978 13.9942499,14.9378837 C16.0528088,19.264822 18.7057895,20.8709335 18.7057895,20.8709335 C19.5782968,21.1844917 21.4978129,19.0563975 21.4978129,19.0563975 L25.1979419,22.5464267 C25.2333867,22.5450656 22.126437,26.4891128 19.5444435,25.2334701 L19.5440945,25.2332607 Z" id="Fill-1"></path>
        </g>
    </g>
</svg>