<?xml version="1.0" encoding="UTF-8"?>
<svg fill="#9FB197" width="100pt" height="100pt" version="1.1" viewBox="0 0 100 100" xmlns="http://www.w3.org/2000/svg">
 <g>
  <path d="m79.602 69.801h-1.3984v-4h-10.305l-3.5 2.5-3.5-2.5h-10.297v4h-1.5l0.10156 18.801h30.5zm-26.602-1.6016h7l3.1016 2.1992v15.699l-2.3984-1.6016-7.7031 0.003906zm12.602 2.3008l3.1016-2.1992h7v16.301h-7.6992l-2.3984 1.6016z"/>
  <path d="m42.602 50.102c9.1016 0 16.5-7.3984 16.5-16.5 0-9.1016-7.3984-16.602-16.5-16.602-9.1016 0-16.5 7.3984-16.5 16.602 0 9.0977 7.3984 16.5 16.5 16.5zm0-28.902c6.8008 0 12.398 5.6016 12.398 12.398 0 6.8008-5.5 12.402-12.398 12.402-6.8008 0-12.398-5.6016-12.398-12.398-0.003906-6.9023 5.5977-12.402 12.398-12.402z"/>
  <path d="m60.801 56.5l1.6992 7.1992 3.8984-1-2.5-10.199h-15.5l-0.19922 1.6992s-0.19922 1.6016-1.1016 3.1016c-1.1016 1.8984-2.5 2.8008-4.5 2.8008-4.6016 0-5.5-5.6016-5.5-5.8984l-0.19922-1.6992h-15.5l-7.3984 28.598 3.8984 1 6.5-25.602h9c1.1016 3.8008 4 7.6016 9.1992 7.6016 5.1016 0 8-4 9.1016-7.6016z"/>
 </g>
</svg>
