<?xml version="1.0" encoding="UTF-8"?>
<svg width="50px" height="51px" viewBox="0 0 50 51" version="1.1" xmlns="http://www.w3.org/2000/svg" xmlns:xlink="http://www.w3.org/1999/xlink">
    <!-- Generator: Sketch 52.6 (67491) - http://www.bohemiancoding.com/sketch -->
    <title>soundcloud</title>
    <desc>Created with Sketch.</desc>
    <g id="Symbols" stroke="none" stroke-width="1" fill="none" fill-rule="evenodd">
        <g id="footer" transform="translate(-452.000000, -259.000000)">
            <g id="soundcloud" transform="translate(452.000000, 259.644531)">
                <g id="mail-copy-3" transform="translate(0.000000, 0.519531)" fill="#FFFFFF">
                    <path d="M35.5634474,47.1326243 C48.0742952,41.29832 53.4861364,26.428202 47.6517918,13.9174407 C41.8183966,1.40572989 26.9481759,-4.00512455 14.4373282,1.82823037 C1.92648046,7.66253472 -3.48631024,22.5307538 2.34803441,35.0424646 C8.18142961,47.5532259 23.0525997,52.9669287 35.5634474,47.1326243 Z" id="Stroke-1"></path>
                </g>
                <g id="soundcloud_logo" transform="translate(7.000000, 15.019531)" fill="#264F9A">
                    <path d="M0.42870677,9.83297808 C0.349723757,9.83297808 0.2870259,9.89404742 0.276847677,9.98117301 L0,12.083994 L0.276847677,14.1505805 C0.2870259,14.237706 0.349723757,14.2983683 0.42870677,14.2983683 C0.50524701,14.2983683 0.567537738,14.2381132 0.579751606,14.1513947 L0.579751606,14.1509876 C0.579751606,14.1509876 0.579751606,14.1509876 0.579751606,14.1513947 L0.907897529,12.083994 L0.579751606,9.98076588 C0.567944867,9.89404742 0.504839881,9.83297808 0.42870677,9.83297808 Z M1.98556782,8.68406022 C1.9725397,8.59367759 1.9078062,8.53138687 1.82800893,8.53138687 C1.74780452,8.53138687 1.68144251,8.59571324 1.67045003,8.68406022 C1.67045003,8.68487448 1.29833418,12.083994 1.29833418,12.083994 L1.67045003,15.4086089 C1.68103538,15.4977701 1.7473974,15.5620965 1.82800893,15.5620965 C1.90739907,15.5620965 1.97213257,15.4993986 1.9851607,15.4094231 L2.40857479,12.083994 L1.98556782,8.68406022 Z M7.84985303,5.54794602 C7.69717968,5.54794602 7.57096971,5.6729346 7.56364138,5.83171489 L7.26725152,12.0868439 L7.56364138,16.1292271 C7.57137683,16.2871931 7.69717968,16.4117746 7.84985303,16.4117746 C8.00171212,16.4117746 8.12751496,16.286786 8.1364718,16.1284128 L8.1364718,16.1296342 L8.47153891,12.0868439 L8.1364718,5.83171489 C8.12751496,5.6729346 8.00171212,5.54794602 7.84985303,5.54794602 Z M4.8147068,7.72201454 C4.69745367,7.72201454 4.60177837,7.8156542 4.59241441,7.94064278 L4.25856868,12.0852154 L4.59241441,16.0950283 C4.60137124,16.2192026 4.69745367,16.3128422 4.8147068,16.3128422 C4.93073855,16.3128422 5.02641385,16.2192026 5.03659208,16.0950283 L5.41603624,12.0852154 L5.03659208,7.93982852 C5.02641385,7.8156542 4.93073855,7.72201454 4.8147068,7.72201454 Z M10.9342619,16.4113674 C11.1235768,16.4113674 11.2774715,16.2586941 11.285207,16.0632722 L11.5758971,12.0888795 L11.2856141,3.76105712 C11.2778787,3.56563523 11.1239839,3.41296188 10.934669,3.41296188 C10.7437255,3.41296188 10.5894236,3.56604236 10.5833167,3.76146425 C10.5833167,3.76187137 10.3256041,12.0884724 10.3256041,12.0884724 L10.5833167,16.0644936 C10.5894236,16.258287 10.7437255,16.4113674 10.9342619,16.4113674 Z M17.2488317,16.4300954 C17.5093942,16.4300954 17.7243583,16.2155384 17.7292438,15.9517189 L17.7292438,15.9545688 L17.7292438,15.9517189 L17.931994,12.0913223 L17.7292438,2.47330829 C17.7247654,2.20989587 17.5093942,1.99493179 17.2488317,1.99493179 C16.987862,1.99493179 16.7724908,2.20948874 16.7684195,2.47371542 L16.5872471,12.0880653 C16.5872471,12.0941722 16.7684195,15.9541616 16.7684195,15.9541616 C16.7724908,16.2155384 16.9882691,16.4300954 17.2488317,16.4300954 Z M14.0675261,16.4150316 C14.294297,16.4150316 14.4770979,16.233045 14.4832048,16.0009815 L14.4832048,16.0038314 L14.7299249,12.0896938 L14.4827977,3.70161629 C14.4766907,3.4695528 14.2938898,3.28797329 14.067119,3.28797329 C13.8387197,3.28797329 13.6559188,3.4695528 13.6510332,3.70161629 L13.4315907,12.0901009 L13.6514404,16.0034242 C13.6563259,16.233045 13.8391268,16.4150316 14.0675261,16.4150316 Z M6.32637655,16.37839 C6.46113622,16.37839 6.57024678,16.2705008 6.580425,16.1284128 L6.93788421,12.0852154 L6.580425,8.23906829 C6.57065391,8.09698029 6.46154335,7.98990538 6.32637655,7.98990538 C6.18958122,7.98990538 6.08047067,8.09779455 6.07192096,8.24069681 L5.75721029,12.0852154 L6.07192096,16.1280057 C6.0808778,16.2705008 6.18958122,16.37839 6.32637655,16.37839 Z M3.31525093,16.1569119 C3.41377613,16.1569119 3.49357341,16.0791502 3.50497302,15.9716682 L3.90640215,12.0844011 L3.50538014,8.05056759 C3.49357341,7.94267842 3.41377613,7.8649168 3.31525093,7.8649168 C3.21550434,7.8649168 3.13570707,7.94308555 3.12552885,8.05056759 C3.12552885,8.05097472 2.77214093,12.0844011 2.77214093,12.0844011 L3.12552885,15.9708539 C3.13529994,16.0787431 3.21509721,16.1569119 3.31525093,16.1569119 Z M15.652072,3.56197107 C15.405759,3.56197107 15.2083014,3.75780009 15.2034159,4.00859151 L15.0031084,12.090508 L15.2034159,15.9794036 C15.2083014,16.226938 15.4053518,16.422767 15.652072,16.422767 C15.8979778,16.422767 16.094214,16.2273452 16.0999138,15.9765537 L16.0999138,15.9798108 L16.324649,12.0909152 L16.0999138,4.00777725 C16.094214,3.75780009 15.8979778,3.56197107 15.652072,3.56197107 Z M9.38635763,16.41951 C9.55653753,16.41951 9.69699701,16.280679 9.70513959,16.103578 L10.0178146,12.0880653 L9.70513959,4.40228519 C9.69658988,4.22477698 9.55653753,4.08635314 9.38635763,4.08635314 C9.21454922,4.08635314 9.07449687,4.2251841 9.06716855,4.40228519 C9.06716855,4.40269232 8.79032087,12.0880653 8.79032087,12.0880653 L9.06757568,16.1052065 C9.07449687,16.280679 9.21454922,16.41951 9.38635763,16.41951 Z M12.8778954,16.040473 L12.8778954,16.0384373 L13.1466005,12.0892866 L12.8778954,3.48095241 C12.8713813,3.26720972 12.70283,3.09947259 12.4947871,3.09947259 C12.2855228,3.09947259 12.1169714,3.26680259 12.1112716,3.48095241 L11.8726941,12.0888795 L12.1116787,16.0400658 C12.1173785,16.2517729 12.2859299,16.4191029 12.4947871,16.4191029 C12.7032371,16.4191029 12.8709742,16.2517729 12.8778954,16.0388445 L12.8778954,16.040473 Z M33.2009577,7.12719916 C32.5629866,7.12719916 31.9543289,7.25625904 31.3998192,7.48872966 C31.0293319,3.29204458 27.5101094,0 23.2173419,0 C22.1669492,0 21.1430199,0.2068215 20.2387866,0.556545256 C19.8874343,0.692526321 19.7937946,0.832578675 19.7905376,1.10413368 L19.7905376,15.8829141 C19.7942018,16.1679043 20.0152728,16.4052605 20.2933418,16.4333524 C20.3051486,16.4345738 33.1174962,16.4410878 33.2005505,16.4410878 C35.7719769,16.4410878 37.8568842,14.3561806 37.8568842,11.7843471 C37.8568842,9.21251358 35.772384,7.12719916 33.2009577,7.12719916 Z M18.8386702,1.09110555 C18.5589726,1.09110555 18.3293519,1.32072627 18.3252806,1.60286662 L18.115202,12.0925437 L18.3256877,15.8996064 C18.3293519,16.1776754 18.5589726,16.406889 18.8386702,16.406889 C19.1175535,16.406889 19.3471742,16.1776754 19.3512455,15.8955351 L19.3512455,15.9000135 L19.5796448,12.0925437 L19.3512455,1.60205237 C19.3471742,1.32072627 19.1175535,1.09110555 18.8386702,1.09110555 Z" id="Shape" fill-rule="nonzero"></path>
                </g>
            </g>
        </g>
    </g>
</svg>