<?xml version="1.0" encoding="UTF-8"?>
<svg width="15px" height="20px" viewBox="0 0 15 20" version="1.1" xmlns="http://www.w3.org/2000/svg" xmlns:xlink="http://www.w3.org/1999/xlink">
    <!-- Generator: Sketch 52.5 (67469) - http://www.bohemiancoding.com/sketch -->
    <title>Group 3</title>
    <desc>Created with Sketch.</desc>
    <g id="Symbols" stroke="none" stroke-width="1" fill="none" fill-rule="evenodd">
        <g id="activiteit" transform="translate(0.000000, -320.000000)" fill="#1C1C1A">
            <g id="Group-3" transform="translate(0.000000, 319.924530)">
                <path d="M7.35294118,13.6764706 C9.375,13.6764706 11.0294118,12.0220588 11.0294118,10 L11.0294118,3.87294118 C11.0294118,1.85088235 9.375,0.196470588 7.35294118,0.196470588 C5.33088235,0.196470588 3.67647059,1.85088235 3.67647059,3.87294118 L3.67647059,10 C3.67647059,12.0220588 5.33088235,13.6764706 7.35294118,13.6764706 Z" id="Fill-1"></path>
                <path d="M12.2552941,8.16176471 L12.2552941,10 C12.2552941,12.6964706 10.0494118,14.9023529 7.35294118,14.9023529 C4.65647059,14.9023529 2.45058824,12.6964706 2.45058824,10 L2.45058824,8.16176471 L0,8.16176471 L0,10 C0,13.6155882 2.63441176,16.6785294 6.12705882,17.23 L6.12705882,19.8035294 L8.57764706,19.8035294 L8.57764706,17.23 C12.0702941,16.6176471 14.7047059,13.6144118 14.7047059,10 L14.7047059,8.16176471 L12.2552941,8.16176471 Z" id="Fill-2"></path>
            </g>
        </g>
    </g>
</svg>