<?xml version="1.0" encoding="UTF-8"?>
<svg width="55px" height="55px" viewBox="0 0 55 55" version="1.1" xmlns="http://www.w3.org/2000/svg" xmlns:xlink="http://www.w3.org/1999/xlink">
    <!-- Generator: Sketch 52.6 (67491) - http://www.bohemiancoding.com/sketch -->
    <title>icoon verhaal hover</title>
    <desc>Created with Sketch.</desc>
    <g id="icoon-verhaal-hover" stroke="none" stroke-width="1" fill="none" fill-rule="evenodd">
        <g id="icoon-nieuws-copy-2" transform="translate(1.000000, 1.000000)" fill="#BBD1B2" stroke="#BBD1B2" stroke-width="1.35">
            <path d="M37.4570578,50.1897875 C50.6340578,44.0447875 56.3340578,28.3827875 50.1890578,15.2057875 C44.0450578,2.02778754 28.3830578,-3.67121246 15.2060578,2.47278754 C2.02905778,8.61778754 -3.67194222,24.2777875 2.47305778,37.4557875 C8.61705778,50.6327875 24.2800578,56.3347875 37.4570578,50.1897875 Z" id="Stroke-1"></path>
        </g>
        <path d="M8.4765625,29.2373047 L10.0878906,23.890625 L11.71875,23.890625 L9.24316406,31 L7.71484375,31 L5.24902344,23.890625 L6.875,23.890625 L8.4765625,29.2373047 Z M16.6650391,27.9189453 L13.8525391,27.9189453 L13.8525391,29.8232422 L17.1533203,29.8232422 L17.1533203,31 L12.3876953,31 L12.3876953,23.890625 L17.1435547,23.890625 L17.1435547,25.0771484 L13.8525391,25.0771484 L13.8525391,26.7714844 L16.6650391,26.7714844 L16.6650391,27.9189453 Z M20.6445312,28.3974609 L19.4775391,28.3974609 L19.4775391,31 L18.0126953,31 L18.0126953,23.890625 L20.6542969,23.890625 C21.4941448,23.890625 22.1419248,24.0777976 22.5976562,24.4521484 C23.0533877,24.8264993 23.28125,25.3554653 23.28125,26.0390625 C23.28125,26.524091 23.1762706,26.9285466 22.9663086,27.2524414 C22.7563466,27.5763363 22.4381532,27.8343089 22.0117188,28.0263672 L23.5498047,30.9316406 L23.5498047,31 L21.9775391,31 L20.6445312,28.3974609 Z M19.4775391,27.2109375 L20.6591797,27.2109375 C21.0270201,27.2109375 21.3118479,27.1173512 21.5136719,26.9301758 C21.7154958,26.7430004 21.8164062,26.4850277 21.8164062,26.15625 C21.8164062,25.8209619 21.7211924,25.5572926 21.5307617,25.3652344 C21.3403311,25.1731761 21.0481791,25.0771484 20.6542969,25.0771484 L19.4775391,25.0771484 L19.4775391,27.2109375 Z M30.1806641,31 L28.7158203,31 L28.7158203,27.953125 L25.859375,27.953125 L25.859375,31 L24.3945312,31 L24.3945312,23.890625 L25.859375,23.890625 L25.859375,26.7714844 L28.7158203,26.7714844 L28.7158203,23.890625 L30.1806641,23.890625 L30.1806641,31 Z M35.5615234,29.5351562 L32.9931641,29.5351562 L32.5048828,31 L30.9472656,31 L33.59375,23.890625 L34.9511719,23.890625 L37.6123047,31 L36.0546875,31 L35.5615234,29.5351562 Z M33.3886719,28.3486328 L35.1660156,28.3486328 L34.2724609,25.6875 L33.3886719,28.3486328 Z M42.2900391,29.5351562 L39.7216797,29.5351562 L39.2333984,31 L37.6757812,31 L40.3222656,23.890625 L41.6796875,23.890625 L44.3408203,31 L42.7832031,31 L42.2900391,29.5351562 Z M40.1171875,28.3486328 L41.8945312,28.3486328 L41.0009766,25.6875 L40.1171875,28.3486328 Z M46.4697266,29.8232422 L49.5800781,29.8232422 L49.5800781,31 L45.0048828,31 L45.0048828,23.890625 L46.4697266,23.890625 L46.4697266,29.8232422 Z" id="VERHAAL" fill="#FFFFFF"></path>
    </g>
</svg>