<?xml version="1.0" encoding="UTF-8"?>
<svg width="17px" height="17px" viewBox="0 0 17 17" version="1.1" xmlns="http://www.w3.org/2000/svg" xmlns:xlink="http://www.w3.org/1999/xlink">
    <!-- Generator: Sketch 52.5 (67469) - http://www.bohemiancoding.com/sketch -->
    <title>target</title>
    <desc>Created with Sketch.</desc>
    <g id="Symbols" stroke="none" stroke-width="1" fill="none" fill-rule="evenodd">
        <g id="activiteit" transform="translate(-150.000000, -32.000000)" fill="#9FB197">
            <g id="target" transform="translate(150.000000, 32.000000)">
                <g id="Group-3" transform="translate(0.000000, 0.063000)">
                    <path d="M8.22800013,2.17800004 C11.5555002,2.17800004 14.2780002,4.90050008 14.2780002,8.22800013 C14.2780002,11.5555002 11.5555002,14.2780002 8.22800013,14.2780002 C4.90050008,14.2780002 2.17800004,11.5555002 2.17800004,8.22800013 C2.17800004,4.90050008 4.90050008,2.17800004 8.22800013,2.17800004 Z M8.22800013,0.161656003 C3.79165606,0.161656003 0.161656003,3.79165606 0.161656003,8.22800013 C0.161656003,12.6643442 3.79165606,16.2943443 8.22800013,16.2943443 C12.6643442,16.2943443 16.2943443,12.6643442 16.2943443,8.22800013 C16.2943443,3.79165606 12.6643442,0.161656003 8.22800013,0.161656003 Z" id="Fill-1"></path>
                    <path d="M8.22800013,6.2116561 C9.33684415,6.2116561 10.2443442,7.11915612 10.2443442,8.22800013 C10.2443442,9.33684415 9.33684415,10.2443442 8.22800013,10.2443442 C7.11915612,10.2443442 6.2116561,9.33684415 6.2116561,8.22800013 C6.2116561,7.11915612 7.11915612,6.2116561 8.22800013,6.2116561 Z M8.22800013,4.19436827 C6.0093441,4.19436827 4.19434407,6.0093683 4.19434407,8.22802433 C4.19434407,10.4466804 6.0093441,12.2616804 8.22800013,12.2616804 C10.4466562,12.2616804 12.2616562,10.4466804 12.2616562,8.22802433 C12.2616562,6.0093683 10.4466562,4.19436827 8.22800013,4.19436827 Z" id="Fill-2"></path>
                </g>
            </g>
        </g>
    </g>
</svg>