<?xml version="1.0" encoding="UTF-8"?>
<svg width="55px" height="55px" viewBox="0 0 55 55" version="1.1" xmlns="http://www.w3.org/2000/svg" xmlns:xlink="http://www.w3.org/1999/xlink">
    <!-- Generator: Sketch 52.5 (67469) - http://www.bohemiancoding.com/sketch -->
    <title>icoon tool</title>
    <desc>Created with Sketch.</desc>
    <g id="icoon-tool" stroke="none" stroke-width="1" fill="none" fill-rule="evenodd">
        <path d="M38.6972543,51.5112849 C51.9587529,45.3269223 57.6953046,29.5645973 51.5108993,16.3031902 C45.3275004,3.04077681 29.5650665,-2.6947289 16.3035679,3.48862731 C3.04206928,9.67298993 -2.69548885,25.4333022 3.48891647,38.6957156 C9.67231538,51.9571226 25.4357557,57.6956475 38.6972543,51.5112849" id="Fill-13" fill="#FEFEFE"></path>
        <path d="M38.6972543,51.5112849 C51.9587529,45.3269223 57.6953046,29.5645973 51.5108993,16.3031902 C45.3275004,3.04077681 29.5650665,-2.6947289 16.3035679,3.48862731 C3.04206928,9.67298993 -2.69548885,25.4333022 3.48891647,38.6957156 C9.67231538,51.9571226 25.4357557,57.6956475 38.6972543,51.5112849 Z" id="Stroke-14" stroke="#BBD1B2" stroke-width="1.35" fill="#FFFFFF"></path>
        <polygon id="Stroke-15" stroke="#BBD1B2" points="19.0689311 26.5006349 18.3106893 23.5002116 21.3446553 22 22.8621379 24.9994356 25.1378621 24.9994356 26.6553447 22 29.6893107 23.5002116 28.9310689 26.5006349 30.4485514 28.0018342 33.4825175 27.2502469 35 30.2506702 31.965035 31.7498942 31.965035 34.0007055 35 35.4999295 33.4825175 38.4993651 30.4485514 37.7507407 28.9310689 39.2499647 29.6893107 42.2494004 26.6553447 43 25.1378621 40.7501764 22.8621379 40.7501764 21.3446553 43 18.3106893 42.2494004 19.0689311 39.2499647 17.5514486 37.7507407 14.5174825 38.4993651 13 35.4999295 16.033966 34.0007055 16.033966 31.7498942 13.6073926 29.9366035 14.5174825 27.2502469 17.5514486 28.0018342"></polygon>
        <path d="M24,37 C26.208725,37 28,35.2106532 28,33.0019282 C28,30.791275 26.208725,29 24,29 C21.791275,29 20,30.791275 20,33.0019282 C20,35.2106532 21.791275,37 24,37 Z" id="Stroke-16" stroke="#BBD1B2"></path>
        <polygon id="Stroke-17" stroke="#BBD1B2" points="31.2638471 18.2596328 30.1299669 16.8117098 31.3968995 15.2688892 32.9387417 16.5358218 34.1606713 15.993829 34.249699 14 36.243528 14.0880494 36.561484 15.900888 37.7403672 16.3528748 39.1882902 15.2199729 40.7301325 16.4869055 39.4622216 18.0267911 40.006171 19.249699 42 19.339705 41.909994 21.3325557 40.099112 21.6505117 39.6461469 22.8284166 40.7800271 24.2773179 39.3311258 25.4121764 37.9712523 24.5522276 36.7493227 25.0951987 36.4783263 26.6800873 34.666466 27 34.3485099 25.1871613 33.1706051 24.7351746 31.7217038 25.8680765 30.1808399 24.6001656 31.4477724 23.06028 30.903823 21.8373721 29.1604455 21.432345 29 19.7545154 30.8118603 19.4375376"></polygon>
        <path d="M36.516517,22.7825751 C37.7776034,22.2207072 38.3444402,20.7448007 37.7836229,19.483608 C37.2218024,18.2224153 35.7440137,17.6555308 34.4829272,18.2163953 C33.222844,18.7782632 32.655004,20.255173 33.2168245,21.5163657 C33.7786451,22.7775584 35.2554305,23.3454463 36.516517,22.7825751 Z" id="Stroke-18" stroke="#BBD1B2"></path>
    </g>
</svg>