<?xml version="1.0" encoding="UTF-8"?>
<svg width="54px" height="54px" viewBox="0 0 54 54" version="1.1" xmlns="http://www.w3.org/2000/svg" xmlns:xlink="http://www.w3.org/1999/xlink">
    <!-- Generator: Sketch 52.6 (67491) - http://www.bohemiancoding.com/sketch -->
    <title>icoon tool hover</title>
    <desc>Created with Sketch.</desc>
    <g id="icoon-tool-hover" stroke="none" stroke-width="1" fill="none" fill-rule="evenodd">
        <g id="icoon-nieuws-copy-2" fill="#BBD1B2" stroke="#BBD1B2" stroke-width="1.35">
            <path d="M38.1318,50.7360343 C51.3088,44.5910343 57.0088,28.9290343 50.8638,15.7520343 C44.7198,2.5740343 29.0578,-3.1249657 15.8808,3.0190343 C2.7038,9.1640343 -2.9972,24.8240343 3.1478,38.0020343 C9.2918,51.1790343 24.9548,56.8810343 38.1318,50.7360343 Z" id="Stroke-1"></path>
        </g>
        <path d="M20.3496094,25.0771484 L18.171875,25.0771484 L18.171875,31 L16.7070312,31 L16.7070312,25.0771484 L14.5585938,25.0771484 L14.5585938,23.890625 L20.3496094,23.890625 L20.3496094,25.0771484 Z M26.8876953,27.6064453 C26.8876953,28.3063186 26.7639986,28.9199192 26.5166016,29.4472656 C26.2692045,29.974612 25.9152041,30.381509 25.4545898,30.6679688 C24.9939756,30.9544285 24.4658233,31.0976562 23.8701172,31.0976562 C23.2809215,31.0976562 22.7552106,30.9560561 22.2929688,30.6728516 C21.8307269,30.389647 21.4726575,29.9851914 21.21875,29.4594727 C20.9648425,28.9337539 20.836263,28.329105 20.8330078,27.6455078 L20.8330078,27.2939453 C20.8330078,26.594072 20.9591459,25.97803 21.2114258,25.4458008 C21.4637057,24.9135716 21.8201474,24.505047 22.2807617,24.2202148 C22.741376,23.9353827 23.2679007,23.7929688 23.8603516,23.7929688 C24.4528024,23.7929688 24.9793271,23.9353827 25.4399414,24.2202148 C25.9005557,24.505047 26.2569974,24.9135716 26.5092773,25.4458008 C26.7615573,25.97803 26.8876953,26.5924444 26.8876953,27.2890625 L26.8876953,27.6064453 Z M25.4033203,27.2841797 C25.4033203,26.5387333 25.2698581,25.9723327 25.0029297,25.5849609 C24.7360013,25.1975892 24.3551457,25.0039062 23.8603516,25.0039062 C23.3688126,25.0039062 22.9895847,25.1951478 22.7226562,25.5776367 C22.4557278,25.9601256 22.320638,26.5208296 22.3173828,27.2597656 L22.3173828,27.6064453 C22.3173828,28.3323604 22.450845,28.8955058 22.7177734,29.2958984 C22.9847019,29.6962911 23.3688126,29.8964844 23.8701172,29.8964844 C24.3616561,29.8964844 24.7392565,29.7036152 25.0029297,29.3178711 C25.2666029,28.932127 25.4000651,28.3697954 25.4033203,27.6308594 L25.4033203,27.2841797 Z M33.7919922,27.6064453 C33.7919922,28.3063186 33.6682955,28.9199192 33.4208984,29.4472656 C33.1735014,29.974612 32.819501,30.381509 32.3588867,30.6679688 C31.8982724,30.9544285 31.3701202,31.0976562 30.7744141,31.0976562 C30.1852184,31.0976562 29.6595075,30.9560561 29.1972656,30.6728516 C28.7350237,30.389647 28.3769544,29.9851914 28.1230469,29.4594727 C27.8691394,28.9337539 27.7405599,28.329105 27.7373047,27.6455078 L27.7373047,27.2939453 C27.7373047,26.594072 27.8634427,25.97803 28.1157227,25.4458008 C28.3680026,24.9135716 28.7244443,24.505047 29.1850586,24.2202148 C29.6456729,23.9353827 30.1721976,23.7929688 30.7646484,23.7929688 C31.3570993,23.7929688 31.883624,23.9353827 32.3442383,24.2202148 C32.8048526,24.505047 33.1612943,24.9135716 33.4135742,25.4458008 C33.6658541,25.97803 33.7919922,26.5924444 33.7919922,27.2890625 L33.7919922,27.6064453 Z M32.3076172,27.2841797 C32.3076172,26.5387333 32.174155,25.9723327 31.9072266,25.5849609 C31.6402981,25.1975892 31.2594426,25.0039062 30.7646484,25.0039062 C30.2731095,25.0039062 29.8938815,25.1951478 29.6269531,25.5776367 C29.3600247,25.9601256 29.2249349,26.5208296 29.2216797,27.2597656 L29.2216797,27.6064453 C29.2216797,28.3323604 29.3551419,28.8955058 29.6220703,29.2958984 C29.8889987,29.6962911 30.2731095,29.8964844 30.7744141,29.8964844 C31.265953,29.8964844 31.6435534,29.7036152 31.9072266,29.3178711 C32.1708998,28.932127 32.304362,28.3697954 32.3076172,27.6308594 L32.3076172,27.2841797 Z M36.3212891,29.8232422 L39.4316406,29.8232422 L39.4316406,31 L34.8564453,31 L34.8564453,23.890625 L36.3212891,23.890625 L36.3212891,29.8232422 Z" id="TOOL" fill="#FFFFFF"></path>
    </g>
</svg>