<?xml version="1.0" encoding="UTF-8"?>
<svg width="50px" height="50px" viewBox="0 0 50 50" version="1.1" xmlns="http://www.w3.org/2000/svg" xmlns:xlink="http://www.w3.org/1999/xlink">
    <!-- Generator: Sketch 53.2 (72643) - https://sketchapp.com -->
    <title>twitter</title>
    <desc>Created with Sketch.</desc>
    <g id="twitter" stroke="none" stroke-width="1" fill="none" fill-rule="evenodd">
        <g id="mail-copy-2" transform="translate(0.000000, -0.839844)" fill="#264F9A">
            <path d="M35.5634474,48.4919993 C48.0742952,42.657695 53.4861364,27.787577 47.6517918,15.2768157 C41.8183966,2.76510489 26.9481759,-2.64574955 14.4373282,3.18760537 C1.92648046,9.02190972 -3.48631024,23.8901288 2.34803441,36.4018396 C8.18142961,48.9126009 23.0525997,54.3263037 35.5634474,48.4919993 Z" id="Stroke-1"></path>
        </g>
        <path d="M39.0000682,16.4650771 C38.2778441,17.5484133 37.3750639,18.4812861 36.3519131,19.2336029 C36.3519131,19.4743443 36.3519131,19.684993 36.3519131,19.9257344 C36.3519131,26.9674195 30.9954176,35.0924408 21.1852067,35.0924408 C18.1759395,35.0924408 15.3472284,34.430402 13,32.9257685 C13.4212974,32.9859538 13.8425948,33.0160465 14.2638922,33.0160465 C16.7615839,33.0160465 19.0787196,31.9327103 20.8842799,30.4882621 C18.5671442,30.4581694 16.5810279,28.8933505 15.9189891,26.7868635 C16.2500085,26.8470488 16.5810279,26.8771415 16.9120473,26.8771415 C17.39353,26.8771415 17.8750128,26.8169561 18.3264029,26.6965855 C15.8888965,26.2151027 14.0532435,24.0484304 14.0532435,21.4604606 C14.0532435,21.4303679 14.0532435,21.4303679 14.0532435,21.4002753 C14.7754676,21.79148 15.5879698,22.0322214 16.4606572,22.062314 C15.016209,21.0993486 14.0833362,19.4743443 14.0833362,17.6386913 C14.0833362,16.6456332 14.3541702,15.833131 14.8055603,15.0507216 C17.4537154,18.2706374 21.3657627,20.2868464 25.7893854,20.5275878 C25.6991074,20.1363831 25.6690147,19.7150857 25.6690147,19.2937883 C25.6690147,16.3447065 28.0463358,13.9673854 30.9954176,13.9673854 C32.5301438,13.9673854 33.9144067,14.6294242 34.9074649,15.652575 C36.1111717,15.4118336 37.2546932,14.9604436 38.2778441,14.3585901 C37.8866393,15.5923897 37.0440445,16.6456332 35.9306157,17.3076719 C37.0139519,17.1873013 38.0371027,16.8863745 39.0000682,16.4650771 Z" id="t" fill="#FFFFFF" fill-rule="nonzero"></path>
    </g>
</svg>