<?xml version="1.0" encoding="UTF-8"?>
<svg width="50px" height="50px" viewBox="0 0 50 50" version="1.1" xmlns="http://www.w3.org/2000/svg" xmlns:xlink="http://www.w3.org/1999/xlink">
    <!-- Generator: Sketch 53.2 (72643) - https://sketchapp.com -->
    <title>twitter copy</title>
    <desc>Created with Sketch.</desc>
    <g id="twitter-copy" stroke="none" stroke-width="1" fill="none" fill-rule="evenodd">
        <g id="mail-copy-2" transform="translate(0.000000, 0.160156)" fill="#264F9A">
            <path d="M35.5634474,47.6521556 C48.0742952,41.8178512 53.4861364,26.9477333 47.6517918,14.4369719 C41.8183966,1.92526114 26.9481759,-3.4855933 14.4373282,2.34776162 C1.92648046,8.18206597 -3.48631024,23.050285 2.34803441,35.5619958 C8.18142961,48.0727572 23.0525997,53.4864599 35.5634474,47.6521556 Z" id="Stroke-1"></path>
        </g>
        <g id="np_plus_2227057_000000" transform="translate(10.000000, 10.000000)" fill="#FFFFFF" fill-rule="nonzero">
            <path d="M15.4303089,0 C16.9597922,0 18.2107593,1.25096704 18.2107593,2.64116121 L18.2107593,12.7891477 L28.2195497,12.7891477 C29.749033,12.7891477 31,14.0401148 31,15.4303089 C31,16.9597922 29.749033,18.2107593 28.2195497,18.2107593 L18.2107593,18.2107593 L18.2107593,28.2195497 C18.2107593,29.749033 16.9597922,31 15.4303089,31 C14.0400838,31 12.7891477,29.749033 12.7891477,28.2195497 L12.7891477,18.2107593 L2.64116121,18.2107593 C1.25093604,18.2107593 0,16.9597922 0,15.4303089 C0,14.0400838 1.25096704,12.7891477 2.64116121,12.7891477 L12.7891477,12.7891477 L12.7891477,2.64116121 C12.7891477,1.25093604 14.0401148,2.2027794e-15 15.4303089,0 Z" id="Path"></path>
        </g>
    </g>
</svg>