<?xml version="1.0" encoding="UTF-8"?>
<svg width="50px" height="50px" viewBox="0 0 50 50" version="1.1" xmlns="http://www.w3.org/2000/svg" xmlns:xlink="http://www.w3.org/1999/xlink">
    <!-- Generator: Sketch 52.6 (67491) - http://www.bohemiancoding.com/sketch -->
    <title>youtube</title>
    <desc>Created with Sketch.</desc>
    <g id="youtube" stroke="none" stroke-width="1" fill="none" fill-rule="evenodd">
        <g id="mail-copy" transform="translate(0.000000, 0.160156)" fill="#FFFFFF">
            <path d="M35.5634474,47.4919993 C48.0742952,41.657695 53.4861364,26.787577 47.6517918,14.2768157 C41.8183966,1.76510489 26.9481759,-3.64574955 14.4373282,2.18760537 C1.92648046,8.02190972 -3.48631024,22.8901288 2.34803441,35.4018396 C8.18142961,47.9126009 23.0525997,53.3263037 35.5634474,47.4919993 Z" id="Stroke-1"></path>
        </g>
        <path d="M25.0000341,15.5923897 C38.0000682,15.5923897 38.0000682,15.5923897 38.0000682,24.8007472 C38.0000682,34.0091046 38.0000682,34.0091046 25.0000341,34.0091046 C12,34.0091046 12,34.0091046 12,24.8007472 C12,15.5923897 12,15.5923897 25.0000341,15.5923897 Z M21.7500256,29.6757599 L29.8750469,24.8007472 L21.7500256,19.9257344 L21.7500256,29.6757599 Z" fill="#264F9A"></path>
    </g>
</svg>